<?xml version="1.0" encoding="utf-8"?>
<!-- Generator: Adobe Illustrator 19.1.0, SVG Export Plug-In . SVG Version: 6.00 Build 0)  -->
<svg version="1.1" id="Layer_1" xmlns="http://www.w3.org/2000/svg" xmlns:xlink="http://www.w3.org/1999/xlink" x="0px" y="0px"
	 viewBox="0 0 61 90.4" style="enable-background:new 0 0 61 90.4;" xml:space="preserve">
<style type="text/css">
	.st0{fill:#4bb5b2;}
</style>
<g>
	<g>
		<path class="st0" d="M31.1,40.3c-11.1,0-20.2-9-20.2-20.2C10.9,9,20,0,31.1,0s20.2,9,20.2,20.2C51.2,31.3,42.2,40.3,31.1,40.3z
			 M31.1,4.9c-8.4,0-15.2,6.8-15.2,15.2c0,8.4,6.8,15.2,15.2,15.2s15.2-6.8,15.2-15.2C46.3,11.8,39.5,4.9,31.1,4.9z"/>
		<path class="st0" d="M21.4,22c-1.4,0-2.5-1.1-2.5-2.5c0-5.3,3.6-9.9,8.7-11.2c1.3-0.3,2.7,0.5,3,1.8s-0.5,2.7-1.8,3
			c-2.9,0.7-5,3.3-5,6.4C23.9,20.9,22.8,22,21.4,22z"/>
	</g>
	<g>
		<path class="st0" d="M48.5,67.2c-6.9,0-12.5-5.6-12.5-12.5c0-6.9,5.6-12.5,12.5-12.5S61,47.8,61,54.7C61,61.6,55.4,67.2,48.5,67.2
			z M48.5,45.8c-4.9,0-9,4-9,9s4,9,9,9s9-4,9-9S53.4,45.8,48.5,45.8z"/>
		<path class="st0" d="M42.6,56.1c-1,0-1.8-0.8-1.8-1.8c0-3.3,2.3-6.2,5.5-7c0.9-0.2,1.9,0.3,2.1,1.3c0.2,0.9-0.3,1.9-1.3,2.1
			c-1.7,0.4-2.8,1.9-2.8,3.6C44.4,55.3,43.6,56.1,42.6,56.1z"/>
	</g>
	<g>
		<path class="st0" d="M9.1,52c-5,0-9.1-4.1-9.1-9.1s4.1-9.1,9.1-9.1s9.1,4.1,9.1,9.1S14.2,52,9.1,52z M9.1,36.5
			c-3.5,0-6.3,2.8-6.3,6.3s2.8,6.3,6.3,6.3s6.3-2.8,6.3-6.3S12.6,36.5,9.1,36.5z"/>
		<path class="st0" d="M5.1,42.4c-0.1,0-0.2,0-0.3-0.1c-0.6-0.2-0.9-0.8-0.7-1.3c0.5-1.6,1.9-2.9,3.6-3.3c0.6-0.1,1.1,0.2,1.3,0.8
			c0.1,0.6-0.2,1.1-0.8,1.3c-1,0.2-1.7,1-2.1,1.9C6,42.1,5.5,42.4,5.1,42.4z"/>
	</g>
	<g>
		<path class="st0" d="M31,82.2c-5,0-9.1-4.1-9.1-9.1S25.9,64,31,64s9.1,4.1,9.1,9.1S36,82.2,31,82.2z M31,66.8
			c-3.5,0-6.3,2.8-6.3,6.3s2.8,6.3,6.3,6.3s6.3-2.8,6.3-6.3S34.5,66.8,31,66.8z"/>
		<path class="st0" d="M27.5,71.6c-0.2,0-0.4-0.1-0.6-0.2c-0.5-0.3-0.6-1-0.2-1.5c0.7-1,1.7-1.7,2.9-1.9c0.6-0.1,1.1,0.2,1.3,0.8
			c0.1,0.6-0.2,1.1-0.8,1.3c-0.7,0.2-1.3,0.6-1.7,1.1C28.1,71.4,27.8,71.6,27.5,71.6z"/>
	</g>
	<path class="st0" d="M27.5,57.7c-3.1,0-5.6-2.5-5.6-5.6s2.5-5.6,5.6-5.6s5.7,2.5,5.7,5.6S30.6,57.7,27.5,57.7z M27.5,49.2
		c-1.6,0-2.8,1.3-2.8,2.8s1.3,2.8,2.8,2.8s2.8-1.3,2.8-2.8S29,49.2,27.5,49.2z"/>
	<path class="st0" d="M15.5,90.4c-2.9,0-5.3-2.4-5.3-5.3c0-2.9,2.4-5.3,5.3-5.3c2.9,0,5.3,2.4,5.3,5.3C20.8,88,18.4,90.4,15.5,90.4z
		 M15.5,81.9c-1.8,0-3.2,1.4-3.2,3.2c0,1.8,1.4,3.2,3.2,3.2c1.8,0,3.2-1.4,3.2-3.2C18.7,83.3,17.3,81.9,15.5,81.9z"/>
</g>
</svg>
