<?xml version="1.0" encoding="utf-8"?>
<!-- Generator: Adobe Illustrator 19.1.0, SVG Export Plug-In . SVG Version: 6.00 Build 0)  -->
<svg version="1.1" id="Layer_1" xmlns="http://www.w3.org/2000/svg" xmlns:xlink="http://www.w3.org/1999/xlink" x="0px" y="0px"
	 viewBox="0 0 93.6 59.5" style="enable-background:new 0 0 93.6 59.5;" xml:space="preserve">
<style type="text/css">
	.st0{fill:#4bb5b2;}
</style>
<g>
	<path class="st0" d="M69.9,25.9H23.5c-1.7,0-3-1.3-3-3c0-1.7,1.3-3,3-3h46.4c3,0,5.9-3.3,5.9-6.8s-2.9-6.8-5.9-6.8
		c-3.1,0-5.9,3.1-5.9,6.5c0,1.7-1.3,3-3,3s-3-1.3-3-3c0-6.8,5.5-12.5,11.9-12.5c6.3,0,11.9,6,11.9,12.8S76.2,25.9,69.9,25.9z"/>
	<path class="st0" d="M66.8,59.5c-1.9,0-3.5-1.6-3.5-3.5s1.6-3.5,3.5-3.5c4.8,0,8.7-3.9,8.7-8.8s-3.9-8.8-8.6-8.8H3.5
		c-1.9,0-3.5-1.6-3.5-3.5s1.6-3.5,3.5-3.5h63.3c8.6,0,15.6,7.1,15.6,15.8C82.5,52.4,75.4,59.5,66.8,59.5z"/>
	<path class="st0" d="M57.7,50.6c-1.1,0-2-0.9-2-2s0.9-2,2-2c1.5,0,2.2-0.6,2.2-1.8c0-1.4-1.6-1.8-2.6-1.8H16.5c-1.1,0-2-0.9-2-2
		s0.9-2,2-2h40.8c3.8,0,6.6,2.4,6.6,5.8C63.9,48.2,61.4,50.6,57.7,50.6z"/>
	<path class="st0" d="M86.7,31.9h-6.2c-1.1,0-2-0.9-2-2s0.9-2,2-2h6.2c1.4,0,2.8-1.7,2.8-3.3c0-1.5-1.2-3.3-2.7-3.3
		c-1.1,0-2-0.9-2-2s0.9-2,2-2c3.6,0,6.7,3.4,6.7,7.3C93.6,28.5,90.4,31.9,86.7,31.9z"/>
</g>
</svg>
