<?xml version="1.0" encoding="utf-8"?>
<!-- Generator: Adobe Illustrator 19.1.0, SVG Export Plug-In . SVG Version: 6.00 Build 0)  -->
<svg version="1.1" id="Layer_1" xmlns="http://www.w3.org/2000/svg" xmlns:xlink="http://www.w3.org/1999/xlink" x="0px" y="0px"
	 viewBox="0 0 107.4 85.6" style="enable-background:new 0 0 107.4 85.6;" xml:space="preserve">
<style type="text/css">
	.st0{fill:#4bb5b2;}
	.st1{fill:#4bb5b2;}
	.st2{fill:#efefef;}
</style>
<g>
	<g>
		<path class="st0" d="M16.8,41.4c-5,0-9.1-4.1-9.1-9.1s4.1-9.1,9.1-9.1s9.1,4.1,9.1,9.1S21.9,41.4,16.8,41.4z M16.8,25.9
			c-3.5,0-6.3,2.8-6.3,6.3s2.8,6.3,6.3,6.3s6.3-2.8,6.3-6.3S20.3,25.9,16.8,25.9z"/>
		<path class="st0" d="M12.8,31.8c-0.1,0-0.2,0-0.3-0.1c-0.6-0.2-0.9-0.8-0.7-1.3c0.5-1.6,1.9-2.9,3.6-3.3c0.6-0.1,1.1,0.2,1.3,0.8
			c0.1,0.6-0.2,1.1-0.8,1.3c-1,0.2-1.7,1-2.1,1.9C13.7,31.6,13.2,31.8,12.8,31.8z"/>
	</g>
	<path class="st0" d="M61.2,75.3c-3.1,0-5.6-2.5-5.6-5.7s2.5-5.6,5.6-5.6s5.7,2.5,5.7,5.6S64.3,75.3,61.2,75.3z M61.2,66.8
		c-1.6,0-2.8,1.3-2.8,2.8s1.3,2.8,2.8,2.8s2.8-1.3,2.8-2.8S62.8,66.8,61.2,66.8z"/>
	<path class="st1" d="M70.8,52H23.5c-1.7,0-3-1.3-3-3s1.3-3,3-3h47.3c3.2,0,5.8-3.6,5.8-6.8c0-3.4-3-6.8-6-6.8
		c-3.2,0-6.1,3.2-6.1,6.5c0,1.7-1.3,3-3,3s-3-1.3-3-3c0-6.7,5.7-12.5,12.1-12.5c6.4,0,12,6,12,12.8C82.5,46,77,52,70.8,52z"/>
	<path class="st1" d="M67.2,85.5c-1.9,0-3.5-1.6-3.5-3.5s1.6-3.5,3.5-3.5c4.8,0,8.9-4,8.9-8.8c0-4.9-3.7-8.8-8.4-8.8H3.5
		C1.6,61,0,59.4,0,57.5S1.6,54,3.5,54h64.2c8.5,0,15.4,7.1,15.4,15.8C83.1,78.3,75.8,85.5,67.2,85.5z"/>
	<path class="st1" d="M32,78.5c-1.1,0-2-0.9-2-2s0.9-2,2-2c1.5,0,2.6-1.7,2.6-3.2c0-1.6-1.5-3.2-2.9-3.2H14.5c-1.1,0-2-0.9-2-2
		s0.9-2,2-2h17.2c3.7,0,6.9,3.4,6.9,7.2C38.6,75.1,35.6,78.5,32,78.5z"/>
	<g>
		<g>
			<circle class="st2" cx="37.4" cy="20.2" r="17.7"/>
			<path class="st0" d="M37.4,40.3c-11.1,0-20.2-9-20.2-20.2C17.2,9,26.3,0,37.4,0s20.2,9,20.2,20.2C57.5,31.3,48.5,40.3,37.4,40.3z
				 M37.4,4.9c-8.4,0-15.2,6.8-15.2,15.2c0,8.4,6.8,15.2,15.2,15.2c8.4,0,15.2-6.8,15.2-15.2C52.6,11.8,45.8,4.9,37.4,4.9z"/>
		</g>
		<path class="st0" d="M27.7,22c-1.4,0-2.5-1.1-2.5-2.5c0-5.3,3.6-9.9,8.7-11.2c1.3-0.3,2.7,0.5,3,1.8c0.3,1.3-0.5,2.7-1.8,3
			c-2.9,0.7-5,3.3-5,6.4C30.2,20.9,29,22,27.7,22z"/>
	</g>
	<g>
		<path class="st0" d="M94.9,65.1c-6.9,0-12.5-5.6-12.5-12.5c0-6.9,5.6-12.5,12.5-12.5c6.9,0,12.5,5.6,12.5,12.5
			C107.4,59.5,101.8,65.1,94.9,65.1z M94.9,43.6c-4.9,0-9,4-9,9s4,9,9,9s9-4,9-9S99.9,43.6,94.9,43.6z"/>
		<path class="st0" d="M89,54c-1,0-1.8-0.8-1.8-1.8c0-3.3,2.3-6.2,5.5-7c0.9-0.2,1.9,0.3,2.1,1.3c0.2,0.9-0.3,1.9-1.3,2.1
			c-1.7,0.4-2.8,1.9-2.8,3.6C90.8,53.2,90,54,89,54z"/>
	</g>
	<g>
		<g>
			<circle class="st2" cx="52.7" cy="75.2" r="7.7"/>
			<path class="st0" d="M52.7,84.4c-5,0-9.1-4.1-9.1-9.1s4.1-9.1,9.1-9.1s9.1,4.1,9.1,9.1S57.8,84.4,52.7,84.4z M52.7,68.9
				c-3.5,0-6.3,2.8-6.3,6.3s2.8,6.3,6.3,6.3s6.3-2.8,6.3-6.3S56.2,68.9,52.7,68.9z"/>
		</g>
		<path class="st0" d="M49.2,73.7c-0.2,0-0.4-0.1-0.6-0.2c-0.5-0.3-0.6-1-0.2-1.5c0.7-1,1.7-1.7,2.9-1.9c0.6-0.1,1.1,0.2,1.3,0.8
			c0.1,0.6-0.2,1.1-0.8,1.3c-0.7,0.2-1.3,0.6-1.7,1.1C49.9,73.6,49.6,73.7,49.2,73.7z"/>
	</g>
	<path class="st0" d="M89.4,38.3c-2.9,0-5.3-2.4-5.3-5.3s2.4-5.3,5.3-5.3c2.9,0,5.3,2.4,5.3,5.3S92.3,38.3,89.4,38.3z M89.4,29.8
		c-1.8,0-3.2,1.4-3.2,3.2s1.4,3.2,3.2,3.2c1.8,0,3.2-1.4,3.2-3.2S91.1,29.8,89.4,29.8z"/>
</g>
</svg>
