<?xml version="1.0" encoding="utf-8"?>
<!-- Generator: Adobe Illustrator 19.1.0, SVG Export Plug-In . SVG Version: 6.00 Build 0)  -->
<svg version="1.1" id="Layer_1" xmlns="http://www.w3.org/2000/svg" xmlns:xlink="http://www.w3.org/1999/xlink" x="0px" y="0px"
	 viewBox="0 0 87.7 67.2" style="enable-background:new 0 0 87.7 67.2;" xml:space="preserve">
<style type="text/css">
	.st0{fill:#4bb5b2;}
</style>
<g>
	<path class="st0" d="M2.1,13.7c2.8,0,7.7-1.4,10.8-6.1c3,4.6,7.8,6,10.6,6.1c0,0,0,0,0.1,0c0,0,0,0,0.1,0c0,0,0,0,0.1,0
		c0,0,0,0,0.1,0c2.8-0.1,7.6-1.5,10.6-6.1c3,4.6,7.8,6,10.6,6.1c0,0,0,0,0.1,0c0,0,0,0,0.1,0c0,0,0,0,0.1,0c0,0,0,0,0.1,0
		c2.8-0.1,7.6-1.5,10.6-6.1c3.1,4.7,8,6.1,10.8,6.1c1.2,0,2.1-0.9,2.1-2.1s-0.9-2.1-2.1-2.1c-0.3,0-6.7-0.1-8.6-7.3
		c0-1-0.6-1.9-1.6-2.1c-0.2,0-0.3,0-0.5,0c-0.2,0-0.3,0-0.5,0c-1,0.2-1.7,1.1-1.6,2.1c-1.9,6.9-8,7.3-8.6,7.3
		c-0.6,0-6.7-0.4-8.6-7.3c0-1-0.6-1.9-1.6-2.1c-0.2,0-0.4,0-0.5,0c-0.2,0-0.3,0-0.5,0c-1,0.2-1.7,1.1-1.6,2.1
		c-1.9,7-8.1,7.3-8.6,7.3c-0.6,0-6.7-0.3-8.6-7.3c0-1-0.6-1.9-1.6-2.1c-0.2,0-0.4,0-0.5,0c-0.2,0-0.3,0-0.5,0
		c-1,0.2-1.7,1.1-1.6,2.1C8.8,9.3,2.4,9.5,2.1,9.5C0.9,9.5,0,10.4,0,11.6S0.9,13.7,2.1,13.7z"/>
	<path class="st0" d="M85.6,36.2c-0.3,0-6.7-0.2-8.6-7.3c0-1-0.6-1.9-1.6-2.1c-0.2,0-0.3,0-0.5,0c-0.2,0-0.3,0-0.5,0
		c-1,0.2-1.7,1.1-1.6,2.1c-1.9,6.9-8,7.3-8.6,7.3c-0.6,0-6.7-0.4-8.6-7.3c0-1-0.6-1.9-1.6-2.1c-0.2,0-0.3,0-0.5,0
		c-0.2,0-0.3,0-0.5,0c-1,0.2-1.7,1.1-1.6,2.1c-1.9,6.9-8,7.3-8.6,7.3c-0.6,0-6.7-0.4-8.6-7.3c0-1-0.6-1.9-1.6-2.1
		c-0.2,0-0.4,0-0.5,0c-0.2,0-0.3,0-0.5,0c-1,0.2-1.7,1.1-1.6,2.1c-1.9,7.1-8.4,7.3-8.6,7.3c-1.2,0-2.1,0.9-2.1,2.1s0.9,2.1,2.1,2.1
		c2.8,0,7.7-1.4,10.8-6.1c3,4.6,7.8,6,10.6,6.1c0,0,0,0,0.1,0c0,0,0,0,0.1,0c0,0,0,0,0.1,0c0,0,0,0,0.1,0c2.8-0.1,7.6-1.5,10.6-6.1
		c3,4.6,7.8,6,10.6,6.1c0,0,0,0,0.1,0c0,0,0,0,0.1,0c0,0,0,0,0.1,0c0,0,0,0,0.1,0c2.8-0.1,7.6-1.5,10.6-6.1c3.1,4.7,8,6.1,10.8,6.1
		c1.2,0,2.1-0.9,2.1-2.1S86.8,36.2,85.6,36.2z"/>
	<path class="st0" d="M66.6,63c-0.3,0-6.7-0.2-8.6-7.3c0-1-0.6-1.9-1.6-2.1c-0.2,0-0.3,0-0.5,0c-0.2,0-0.3,0-0.5,0
		c-1,0.2-1.7,1.1-1.6,2.1c-1.9,6.9-8,7.3-8.6,7.3c-0.6,0-6.7-0.4-8.6-7.3c0-1-0.6-1.9-1.6-2.1c-0.2,0-0.4,0-0.5,0
		c-0.2,0-0.3,0-0.5,0c-1,0.2-1.7,1.1-1.6,2.1c-1.9,7-8.1,7.3-8.6,7.3c-0.6,0-6.7-0.3-8.6-7.3c0-1-0.6-1.9-1.6-2.1
		c-0.2,0-0.4,0-0.5,0c-0.2,0-0.3,0-0.5,0c-1,0.2-1.7,1.1-1.6,2.1C8.8,62.8,2.4,63,2.1,63C0.9,63,0,63.9,0,65.1s0.9,2.1,2.1,2.1
		c2.8,0,7.7-1.4,10.8-6.1c3,4.6,7.8,6,10.6,6.1c0,0,0,0,0.1,0c0,0,0,0,0.1,0c0,0,0,0,0.1,0c0,0,0,0,0.1,0c2.8-0.1,7.6-1.5,10.6-6.1
		c3,4.6,7.8,6,10.6,6.1c0,0,0,0,0.1,0c0,0,0,0,0.1,0c0,0,0,0,0.1,0c0,0,0,0,0.1,0c2.8-0.1,7.6-1.5,10.6-6.1c3.1,4.7,8,6.1,10.8,6.1
		c1.2,0,2.1-0.9,2.1-2.1S67.8,63,66.6,63z"/>
</g>
</svg>
