<svg height='100px' width='100px'  fill="#4bb5b2" xmlns="http://www.w3.org/2000/svg" xmlns:xlink="http://www.w3.org/1999/xlink" version="1.1" x="0px" y="0px" viewBox="0 0 100 100" style="enable-background:new 0 0 100 100;" xml:space="preserve"><path d="M50.4,44.1c-0.9-4.4-3.5-12.1-10.3-14.3c0.2-0.7,0.3-1.6,0.3-2.6v-1.4l-17.8,0c-0.3,0-8.1-0.3-12.7,4.1  c-2.3,2.2-3.4,5-3.4,8.6l0.1,4.7c-2.4,0.7-4.1,2.9-4.1,5.4c0,2.4,1.6,4.6,4,5.4v0.6c0,7.2,4,13.5,10,16.9l-0.2,4.7  c-6.4,0.4-9.7,3-10.8,4.1c-2,1.9-3,4.5-3,7.5v10.7h2.7V87.9c0-2.3,0.7-4.1,2.2-5.6c3.3-3.2,9.2-3.3,10.1-3.3c0,0,0,0,0.1,0  c0.3,0,0.7-0.1,0.9-0.4c0.3-0.2,0.4-0.6,0.4-1l0.2-4.8c2.4,1,5.1,1.5,7.9,1.5c2.8,0,5.5-0.5,7.9-1.5l0.2,4.8c0,0.7,0.6,1.3,1.4,1.3  c0,0,0,0,0,0c0.6,0,6.2,0.1,9.4,3.2c1.5,1.4,2.2,3.4,2.2,5.8v10.7h2.7V87.9c0-3.1-1-5.7-3.1-7.7c-3.1-3-7.6-3.7-10-3.9l-0.2-4.8  c5.9-3.5,9.9-9.7,9.9-16.9c0-1.4,0-4.9,0-6.9h3.6L50.4,44.1z M44.8,54.6c0,9.4-8,17-17.8,17c-9.8,0-17.8-7.6-17.8-17v-2.9l-1.3-0.1  c-1.5-0.1-2.7-1.4-2.7-2.9c0-1.6,1.2-2.9,2.8-2.9l1.2-0.1l0-7.1c0-2.7,0.9-5,2.6-6.6c3.3-3.1,8.8-3.4,10.4-3.4c0.2,0,15.5,0,15.5,0  c-0.1,0.8-0.3,1-0.3,1l-3,2l3.5,0.5c6.6,1,9.1,8.6,10,12.9l-3,0C44.8,45,44.8,54.5,44.8,54.6z"></path><path d="M26.7,62.5c-2.8,0-5.3-1.6-5.3-3.5c0-0.6-0.5-1.1-1.1-1.1c-0.6,0-1.1,0.5-1.1,1.1c0,3.1,3.4,5.7,7.5,5.7  c0.6,0,1.1-0.5,1.1-1.1C27.8,63,27.3,62.5,26.7,62.5z"></path><path d="M21.5,51c0,0.6,0.5,1.1,1.1,1.1c0.6,0,1.1-0.5,1.1-1.1c0-1.9-1.9-3.4-4.3-3.4s-4.3,1.5-4.3,3.4c0,0.6,0.5,1.1,1.1,1.1  c0.6,0,1.1-0.5,1.1-1.1c0-0.6,0.9-1.2,2.1-1.2C20.6,49.8,21.5,50.5,21.5,51z"></path><path d="M33,47.6c-2.4,0-4.3,1.5-4.3,3.4c0,0.6,0.5,1.1,1.1,1.1c0.6,0,1.1-0.5,1.1-1.1c0-0.6,0.9-1.2,2.1-1.2c1.2,0,2.1,0.6,2.1,1.2  c0,0.6,0.5,1.1,1.1,1.1c0.6,0,1.1-0.5,1.1-1.1C37.3,49.1,35.5,47.6,33,47.6z"></path><path d="M94.9,37.9c3.2-5.5,4.1-11.9,2.5-18.1c-1.6-6.2-5.5-11.3-11.1-14.5C82.6,3.1,78.5,2,74.3,2c-2,0-4.1,0.3-6.1,0.8  C62,4.4,56.9,8.3,53.7,13.8c-3.2,5.5-4.1,11.9-2.5,18.1c1.4,5.3,4.6,9.9,9,13.2l0.2,0.1l-7.1,10.8L80.4,49  C86.5,47.3,91.7,43.4,94.9,37.9z M79.7,46.4l-20.5,5.4l4.8-7.3l-1.1-0.7c-4.5-2.9-7.8-7.3-9.1-12.5c-1.4-5.5-0.7-11.2,2.2-16.1  c2.9-4.9,7.5-8.4,13-9.8C74.3,3.9,80.1,4.7,85,7.5c4.9,2.9,8.4,7.5,9.9,13c1.4,5.5,0.7,11.2-2.2,16.1C89.8,41.5,85.2,45,79.7,46.4z"></path><rect x="72.1" y="33.9" width="4.3" height="3.7"></rect><path d="M74.3,14.2c-4.2,0-7.6,3.4-7.6,7.6H71c0-1.8,1.5-3.3,3.3-3.3c1.8,0,3.3,1.5,3.3,3.3c0,1.8-1.5,3.3-3.3,3.3h-2.2v6.1h4.3V29  c3.1-0.9,5.4-3.8,5.4-7.3C81.9,17.6,78.5,14.2,74.3,14.2z"></path></svg>